<svg style="position: absolute; width: 0; height: 0; overflow: hidden;" version="1.1" xmlns="http://www.w3.org/2000/svg">
<defs>
<symbol id="icon-msg_btn" viewBox="0 0 46 32">
<title>msg_btn</title>
<path fill="#fff" style="fill: var(--color1, #fff)" d="M0 0v32h45.824v-32h-45.824zM7.601 3.556h30.623l-15.311 10.278-15.311-10.278zM3.525 5.111l18.396 12.389 0.991 0.611 0.991-0.611 18.396-12.389v23.333h-38.774v-23.333z"></path>
</symbol>
<symbol id="icon-arrow-right2" viewBox="0 0 32 32">
<title>arrow-right2</title>
<path d="M19.414 27.414l10-10c0.781-0.781 0.781-2.047 0-2.828l-10-10c-0.781-0.781-2.047-0.781-2.828 0s-0.781 2.047 0 2.828l6.586 6.586h-19.172c-1.105 0-2 0.895-2 2s0.895 2 2 2h19.172l-6.586 6.586c-0.39 0.39-0.586 0.902-0.586 1.414s0.195 1.024 0.586 1.414c0.781 0.781 2.047 0.781 2.828 0z"></path>
</symbol>
<symbol id="icon-arrow-left2" viewBox="0 0 32 32">
<title>arrow-left2</title>
<path d="M12.586 27.414l-10-10c-0.781-0.781-0.781-2.047 0-2.828l10-10c0.781-0.781 2.047-0.781 2.828 0s0.781 2.047 0 2.828l-6.586 6.586h19.172c1.105 0 2 0.895 2 2s-0.895 2-2 2h-19.172l6.586 6.586c0.39 0.39 0.586 0.902 0.586 1.414s-0.195 1.024-0.586 1.414c-0.781 0.781-2.047 0.781-2.828 0z"></path>
</symbol>
<symbol id="icon-facebook" viewBox="0 0 32 32">
<title>facebook</title>
<path fill="#fff" style="fill: var(--color1, #fff)" d="M29.067 0h-26.134c-1.6 0-2.933 1.333-2.933 2.933v26.134c0 1.6 1.333 2.933 2.933 2.933h13.067v-13.333h-4v-4h4v-4c0-3.334 1.333-5.334 5.333-5.334h4v4h-1.733c-1.2 0-2.267 1.067-2.267 2.267v3.067h5.334l-0.667 4h-4.667v13.333h7.734c1.6 0 2.933-1.333 2.933-2.933v-26.134c0-1.6-1.333-2.933-2.933-2.933z"></path>
</symbol>
<symbol id="icon-instagram" viewBox="0 0 32 32">
<title>instagram</title>
<path fill="none" stroke="#fff" stroke-width="2.9091" stroke-miterlimit="4" stroke-linecap="butt" stroke-linejoin="miter" style="stroke: var(--color1, #fff)" d="M5.302 29.372h21.396c1.477 0 2.673-1.197 2.673-2.673 0-0 0-0.001 0-0.002v-21.396c0-1.476-1.197-2.673-2.673-2.673-0 0-0.001 0-0.002 0h-21.396c-1.476 0-2.673 1.197-2.673 2.673 0 0 0 0.001 0 0.002v21.396c0 1.476 1.197 2.673 2.675 2.673z"></path>
<path fill="none" stroke="#fff" stroke-width="2.9091" stroke-miterlimit="4" stroke-linecap="butt" stroke-linejoin="miter" style="stroke: var(--color1, #fff)" d="M22.687 16c0 3.693-2.994 6.687-6.687 6.687s-6.687-2.994-6.687-6.687c0-3.693 2.994-6.687 6.687-6.687s6.687 2.994 6.687 6.687z"></path>
<path fill="#fff" style="fill: var(--color1, #fff)" d="M2.627 2.627v10.698h7.153c1.103-3.114 2.727-4.012 6.22-4.012 3.491 0 5.117 0.897 6.218 4.012h7.153v-10.698h-26.745zM26.697 9.313h-4.012v-4.012h4.012v4.012z"></path>
</symbol>
<symbol id="icon-twitter" viewBox="0 0 38 32">
<title>twitter</title>
<path fill="#fff" style="fill: var(--color1, #fff)" d="M37.647 4.009c-1.292 0.589-2.791 1.018-4.362 1.21 1.524-0.959 2.725-2.444 3.308-4.211-1.396 0.797-3.040 1.447-4.791 1.801-1.513-1.493-3.518-2.433-5.743-2.433-4.267 0-7.725 3.459-7.725 7.725 0 0.628 0.075 1.239 0.216 1.823-6.445-0.385-12.104-3.442-15.899-8.083-0.688 1.071-1.076 2.407-1.076 3.833 0 0.003 0 0.006 0 0.010 0 2.678 1.363 5.042 3.435 6.428-1.291-0.042-2.49-0.395-3.538-0.986l0.038 0.116c0 0 0 0 0 0.001 0 3.726 2.637 6.836 6.147 7.565-0.558 0.181-1.256 0.28-1.977 0.28-0.517 0-1.022-0.051-1.51-0.148 1.066 3.101 3.899 5.306 7.256 5.373-2.599 2.062-5.934 3.307-9.56 3.307-0.009 0-0.018 0-0.027-0-0.62 0-1.235-0.038-1.841-0.109 3.341 2.177 7.429 3.471 11.82 3.471 0.007 0 0.014 0 0.021 0 14.207 0 21.974-11.77 21.974-21.976 0-0.335-0.008-0.668-0.021-1 1.517-1.106 2.795-2.429 3.818-3.941z"></path>
</symbol>
<symbol id="icon-veg-icon" viewBox="0 0 32 32">
<title>veg-icon</title>
<path fill="none" d="M6 0h20c3.314 0 6 2.686 6 6v20c0 3.314-2.686 6-6 6h-20c-3.314 0-6-2.686-6-6v-20c0-3.314 2.686-6 6-6z"></path>
<path fill="none" stroke="#49a942" stroke-width="2" stroke-miterlimit="4" stroke-linecap="butt" stroke-linejoin="miter" style="stroke: var(--color2, #49a942)" d="M7 1h18c3.314 0 6 2.686 6 6v18c0 3.314-2.686 6-6 6h-18c-3.314 0-6-2.686-6-6v-18c0-3.314 2.686-6 6-6z"></path>
<path fill="#49a942" style="fill: var(--color2, #49a942)" d="M24 16c0 4.418-3.582 8-8 8s-8-3.582-8-8c0-4.418 3.582-8 8-8s8 3.582 8 8z"></path>
</symbol>
<symbol id="icon-non-veg-icon" viewBox="0 0 32 32">
<title>non-veg-icon</title>
<path fill="none" d="M6 0h20c3.314 0 6 2.686 6 6v20c0 3.314-2.686 6-6 6h-20c-3.314 0-6-2.686-6-6v-20c0-3.314 2.686-6 6-6z"></path>
<path fill="none" stroke="#951C21" stroke-width="2" stroke-miterlimit="4" stroke-linecap="butt" stroke-linejoin="miter" style="stroke: var(--color2, #951C21)" d="M7 1h18c3.314 0 6 2.686 6 6v18c0 3.314-2.686 6-6 6h-18c-3.314 0-6-2.686-6-6v-18c0-3.314 2.686-6 6-6z"></path>
<path fill="#951C21" style="fill: var(--color2, #951C21)" d="M24 16c0 4.418-3.582 8-8 8s-8-3.582-8-8c0-4.418 3.582-8 8-8s8 3.582 8 8z"></path>
</symbol>
<symbol id="icon-cart-icon" viewBox="0 0 36 32">
<title>cart-icon</title>
<path fill="#fff" style="fill: var(--color1, #fff)" d="M0.98 2h3.212l1.73 5.294 5.53 16.932c-1.55 0.575-2.634 2.041-2.634 3.76 0 0.005 0 0.010 0 0.015 0 2.205 1.76 3.999 3.92 3.999s3.92-1.794 3.92-4c0-0.728-0.196-1.41-0.532-2h7.88c-0.333 0.574-0.53 1.264-0.53 1.999 0 0 0 0.001 0 0.001 0 2.206 1.758 4 3.92 4 2.16 0 3.92-1.794 3.92-4s-1.76-4-3.92-4h-13.952l-1.306-4h18.236c0.422 0 0.798-0.276 0.93-0.684l3.92-12c0.032-0.094 0.050-0.203 0.050-0.316 0-0.219-0.069-0.421-0.186-0.587-0.176-0.249-0.466-0.412-0.794-0.413h-26.728l-1.738-5.316c-0.129-0.398-0.495-0.68-0.928-0.684h-3.92c-0.54 0-0.98 0.448-0.98 1s0.44 1 0.98 1zM21.556 18v-4h3.744l-0.654 4h-3.090zM21.556 12v-4h4.722l-0.652 4h-4.070zM19.596 12h-4.068l-0.654-4h4.722v4zM19.596 14v4h-3.088l-0.654-4h3.742zM14.52 18h-3.036l-1.304-4h3.69l0.652 4zM14.698 28c0 1.102-0.88 2-1.96 2-1.085-0.012-1.96-0.895-1.96-1.982 0-0.006 0-0.013 0-0.019 0-1.101 0.88-1.999 1.96-1.999s1.96 0.898 1.96 2zM29.354 28c0 1.102-0.88 2-1.96 2-1.085-0.012-1.96-0.895-1.96-1.982 0-0.006 0-0.013 0-0.019 0-1.101 0.88-1.999 1.96-1.999s1.96 0.898 1.96 2zM29.668 18h-3.036l0.654-4h3.69l-1.308 4zM31.628 12h-4.016l0.654-4h4.67l-1.308 4zM12.888 8l0.652 4h-4.016l-1.304-4h4.67z"></path>
</symbol>
<symbol id="icon-location-icon" viewBox="0 0 22 32">
<title>location-icon</title>
<path fill="none" stroke="#c1272e" stroke-width="1.4545" stroke-miterlimit="4" stroke-linecap="butt" stroke-linejoin="miter" style="stroke: var(--color1, #c1272e)" d="M11.152 1.455c-5.353 0.006-9.692 4.344-9.697 9.697 0 8.553 8.865 18.755 9.242 19.186 0.116 0.131 0.281 0.208 0.455 0.208 0.18-0.003 0.342-0.083 0.453-0.207 0.379-0.438 9.243-10.815 9.243-19.186-0.006-5.353-4.343-9.691-9.695-9.697zM11.152 8.121c2.008 0 3.636 1.629 3.636 3.637s-1.628 3.637-3.637 3.637c-0 0-0.001 0-0.001 0-2.008 0-3.636-1.628-3.636-3.636s1.628-3.636 3.636-3.636z"></path>
</symbol>
<symbol id="icon-angel-left-arrow" viewBox="0 0 22 32">
<title>angel-left-arrow</title>
<path d="M21.161 26.511c-0.003 0.193-0.082 0.366-0.209 0.492l-4.271 4.271c-0.129 0.129-0.307 0.208-0.503 0.208s-0.374-0.080-0.503-0.208l-14.95-14.95c-0.129-0.129-0.208-0.307-0.208-0.503s0.080-0.374 0.208-0.503l14.95-14.95c0.129-0.129 0.307-0.208 0.503-0.208s0.374 0.080 0.503 0.208l4.271 4.271c0.129 0.129 0.208 0.307 0.208 0.503s-0.080 0.374-0.208 0.503l-10.175 10.176 10.175 10.175c0.129 0.129 0.209 0.307 0.209 0.504 0 0.004-0 0.007-0 0.011zM19.443 26.501l-10.175-10.176c-0.129-0.129-0.208-0.307-0.208-0.503s0.080-0.374 0.208-0.503l10.175-10.175-3.265-3.265-13.943 13.944 13.943 13.943 3.265-3.265z"></path>
</symbol>
<symbol id="icon-angel-right-arrow" viewBox="0 0 22 32">
<title>angel-right-arrow</title>
<path d="M0.516 26.511c0.003 0.193 0.082 0.366 0.209 0.492l4.271 4.271c0.279 0.279 0.729 0.279 1.006 0l14.95-14.95c0.129-0.129 0.208-0.307 0.208-0.503s-0.080-0.374-0.208-0.503l-14.95-14.95c-0.129-0.129-0.307-0.208-0.503-0.208s-0.374 0.080-0.503 0.208l-4.271 4.271c-0.129 0.129-0.208 0.307-0.208 0.503s0.080 0.374 0.208 0.503l10.175 10.176-10.175 10.175c-0.129 0.129-0.209 0.307-0.209 0.504 0 0.004 0 0.007 0 0.011zM2.235 26.501l10.175-10.176c0.129-0.129 0.208-0.307 0.208-0.503s-0.080-0.374-0.208-0.503l-10.175-10.175 3.265-3.265 13.943 13.944-13.943 13.943-3.265-3.264z"></path>
</symbol>
<symbol id="icon-delete" viewBox="0 0 32 32">
<title>delete</title>
<path fill="none" stroke="#b7b7b7" stroke-width="3.2" stroke-miterlimit="4" stroke-linecap="butt" stroke-linejoin="miter" style="stroke: var(--color1, #b7b7b7)" d="M4.17 3.2l-0.97 0.97 11.642 11.638-11.642 11.645 0.97 0.97 11.638-11.645 11.642 11.645 0.97-0.97-11.642-11.645 11.645-11.642-0.97-0.966-11.645 11.642z"></path>
</symbol>
<symbol id="icon-icons-8-add" viewBox="0 0 32 32">
<title>icons-8-add</title>
<path d="M16 1c-8.27 0-15 6.73-15 15s6.73 15 15 15 15-6.73 15-15-6.73-15-15-15zM16 3.308c0.005 0 0.012 0 0.018 0 7 0 12.674 5.674 12.674 12.674 0 0.006 0 0.013 0 0.019 0 0.004 0 0.011 0 0.017 0 7-5.674 12.674-12.674 12.674-0.006 0-0.013 0-0.019 0-0.004 0-0.011 0-0.017 0-7 0-12.674-5.674-12.674-12.674 0-0.006 0-0.013 0-0.019 0-0.004 0-0.011 0-0.017 0-7 5.674-12.674 12.674-12.674 0.006 0 0.013 0 0.019 0zM14.846 10.23v4.616h-4.616v2.308h4.616v4.616h2.308v-4.616h4.616v-2.308h-4.616v-4.616h-2.308z"></path>
</symbol>
<symbol id="icon-icons-8-edit" viewBox="0 0 32 32">
<title>icons-8-edit</title>
<path d="M26.797 0.126c-1.289 0-2.575 0.499-3.575 1.5l-19.462 19.462-0.077 0.384-1.346 6.769-0.384 1.807 1.807-0.384 7.153-1.423 0.271-0.269 19.191-19.194c0.926-0.91 1.5-2.176 1.5-3.577s-0.574-2.666-1.5-3.576c-0.913-0.924-2.178-1.498-3.578-1.5zM26.797 2.473c0.619 0 1.248 0.284 1.847 0.883 1.197 1.199 1.197 2.496 0 3.693l-0.885 0.847-3.654-3.654 0.847-0.885c0.597-0.597 1.227-0.883 1.845-0.883zM22.374 5.971l3.654 3.654-14.884 14.884c-0.818-1.581-2.075-2.837-3.61-3.632l14.84-14.904zM5.914 22.857c1.474 0.597 2.633 1.756 3.23 3.23l-4.038 0.809 0.809-4.038z"></path>
</symbol>
<symbol id="icon-expand-arrow" viewBox="0 0 50 32">
<title>expand-arrow</title>
<path fill="#c1272e" style="fill: var(--color1, #c1272e)" d="M24.889 18.396l18.18-17.806c0.373-0.365 0.885-0.59 1.449-0.59 0.573 0 1.092 0.232 1.467 0.608l3.186 3.186c0.377 0.376 0.61 0.896 0.61 1.47s-0.233 1.094-0.61 1.47l-22.816 22.66c-0.375 0.377-0.894 0.61-1.467 0.61s-1.092-0.233-1.467-0.609l-22.809-22.66c-0.378-0.376-0.612-0.896-0.612-1.47s0.234-1.095 0.612-1.47l3.182-3.186c0.375-0.376 0.894-0.608 1.467-0.608 0.564 0 1.075 0.225 1.449 0.591l18.179 17.806z"></path>
</symbol>
<symbol id="icon-star" viewBox="0 0 34 32">
<title>star</title>
<path d="M0 12.040l8.517 7.872-2.914 12.088 10.709-5.426 10.461 5.042-1.96-11.357 8.787-8.395-12.272-0.608-4.818-11.256-5.072 11.664z"></path>
</symbol>
</defs>
</svg>
