<svg width="22" height="22" viewBox="0 0 22 22" xmlns="http://www.w3.org/2000/svg"><title>BDB7E84F-D02F-42F8-AC11-97100801F6E9</title><g fill="none" fill-rule="evenodd"><g transform="translate(1.806 1.806)"><path d="M1.839 18.387h14.71a1.838 1.838 0 0 0 1.838-1.839V1.838A1.838 1.838 0 0 0 16.548 0H1.838A1.838 1.838 0 0 0 0 1.839v14.71c0 1.015.823 1.838 1.839 1.838z" stroke="#FFF" stroke-width="2"/><circle stroke="#FFF" stroke-width="2" cx="9.194" cy="9.194" r="4.597"/><path d="M0 0v7.355h4.918c.758-2.141 1.875-2.758 4.276-2.758 2.4 0 3.518.617 4.275 2.758h4.918V0H0zm16.548 4.597H13.79V1.839h2.758v2.758z" fill="#FFF"/></g><path d="M-3.516-3.516h29.032v29.032H-3.516z"/></g></svg>