<svg width="20" height="17" viewBox="0 0 20 17" xmlns="http://www.w3.org/2000/svg"><title>7AE6D8AF-0890-482D-BD56-482FF9EC94C5</title><g fill="none" fill-rule="evenodd"><path d="M20 2.13a8.192 8.192 0 0 1-2.357.647 4.113 4.113 0 0 0 1.805-2.27 8.22 8.22 0 0 1-2.606.995 4.104 4.104 0 0 0-6.993 3.743A11.65 11.65 0 0 1 1.392.958 4.09 4.09 0 0 0 .837 3.02c0 1.423.724 2.679 1.825 3.415a4.09 4.09 0 0 1-1.859-.513v.051a4.105 4.105 0 0 0 3.292 4.024 4.092 4.092 0 0 1-1.853.07 4.109 4.109 0 0 0 3.833 2.85 8.23 8.23 0 0 1-5.096 1.757c-.33 0-.657-.02-.979-.058a11.614 11.614 0 0 0 6.29 1.844c7.548 0 11.674-6.253 11.674-11.675 0-.178-.004-.355-.011-.531A8.354 8.354 0 0 0 20 2.131z" fill="#FFF"/><path d="M-5-6h30v30H-5z"/></g></svg>