<svg xmlns="http://www.w3.org/2000/svg" width="408" height="275" viewBox="0 0 408 275" xmlns:xlink="http://www.w3.org/1999/xlink">
  <defs>
    <path id="b" d="M0,2.99979516 C0,1.34305404 1.34023421,-1.0658141e-14 3.00541811,-1.0658141e-14 L66.4202576,-1.0658141e-14 C68.0801042,-1.0658141e-14 69.4256757,1.33949091 69.4256757,2.99979516 L69.4256757,22.9298881 C69.4256757,24.5866292 68.0894858,25.9296832 66.4253013,25.9296832 L40.1016837,25.9296832 L35.5758464,30.3961551 C34.7885691,31.1731057 33.510683,31.1744062 32.7186515,30.3961551 L28.1730921,25.9296832 L3.00166624,25.9296832 C1.34389175,25.9296832 0,24.5901923 0,22.9298881 L0,2.99979516 Z"/>
    <filter id="a" width="113%" height="128.6%" x="-6.5%" y="-14.3%" filterUnits="objectBoundingBox">
      <feOffset in="SourceAlpha" result="shadowOffsetOuter1"/>
      <feGaussianBlur stdDeviation="1.5" in="shadowOffsetOuter1" result="shadowBlurOuter1"/>
      <feColorMatrix values="0 0 0 0 0 0 0 0 0 0 0 0 0 0 0 0 0 0 0.2 0" in="shadowBlurOuter1"/>
    </filter>
  </defs>
  <g fill="none" fill-rule="evenodd" transform="translate(1 1)">
    <path stroke="#979797" d="M5.29634113,136.457834 L7.01143146,135.752141 L7.72234973,136.154118 L8.23776548,136.12732 L9.65960202,135.18044 L10.0417206,134.48368 L9.78401272,133.795853 L8.58433814,132.831107 L8.82427305,131.437587 L7.84676043,128.882799 L7.74900917,127.757263 L8.1489007,126.560264 L7.89119282,125.979631 L5.82064335,124.836229 L4.08778007,124.335991 L2.879219,124.416386 L2.07943595,125.309669 L1.20856106,124.87196 L0.941966711,124.264528 L0.595394053,123.138992 L1.20856106,122.603023 L1.28853937,122.192113 L1.42108547e-13,120.173294 L0.16884309,118.806572 L1.32408528,118.449259 L1.92836581,117.689969 L2.02611708,117.189731 L1.51958781,115.840874 L2.44378156,114.098973 L5.09195213,113.437944 L6.9136802,112.053357 L8.07780887,111.758573 L8.01560352,110.659836 L8.94868375,110.981418 L10.5837958,110.731298 L12.4499562,109.578964 L12.9120531,111.633514 L13.4008094,112.115886 L14.6982353,112.133752 L17.1509033,111.231537 L17.8529351,111.696044 L19.0614962,110.793828 L20.2522843,108.212242 L21.7363262,106.389945 L26.0551547,106.65793 L27.6991532,106.157692 L29.7519297,105.987968 L31.4403606,104.237135 L31.6003172,103.49571 L33.9818934,102.084324 L37.5631442,100.342423 L40.7445035,99.3866107 L41.348784,98.5737236 L43.9436357,98.1806793 L44.1657977,97.689374 L43.9702951,96.8318228 L44.2546624,96.3226517 L43.6237225,92.9728424 L44.0769329,92.1063583 L46.1119364,91.2398743 L45.898661,90.5520468 L45.0188996,90.1054056 L46.3163254,89.5069063 L47.3827028,89.623033 L47.7470485,88.908407 L46.9561519,87.4523565 L47.1872003,86.5858725 L46.8228547,85.4514037 L44.8856024,81.1189836 L44.8678295,77.5726521 L45.658726,75.946878 L45.2943804,75.5449008 L43.9969546,75.0446626 L42.2107724,75.0982596 L41.7486755,74.8124092 L42.6906422,74.0709847 L46.4318497,73.0973068 L47.924778,73.0615755 L53.3899622,71.3107418 L53.8609456,72.2040243 L54.9806419,72.7935907 L57.2200344,72.3380167 L58.4641414,73.0705083 L59.1750597,72.9990457 L59.9304104,71.4447342 L59.868205,70.1852059 L57.9220662,69.2204608 L57.8954068,68.9256775 L59.4772,64.2627429 L62.2675542,57.4737959 L62.6141268,55.7408279 L66.7285663,57.2326096 L68.7902293,57.6703181 L70.9851895,57.4559303 L73.055739,57.6524524 L73.4556305,58.4564067 L74.059911,58.8405181 L75.6594771,58.1437578 L77.0990866,57.0986173 L78.8941553,56.7681027 L80.1293758,54.9458064 L80.2004676,54.0703896 L79.6672789,52.8019284 L79.2673874,49.2913282 L80.3248783,46.0755112 L81.0091371,45.423415 L83.8972426,45.0214379 L85.9944515,44.2621478 L87.1408072,42.7882316 L87.3985151,40.0905185 L88.1005469,39.5366834 L90.1977558,39.4205566 L91.6018194,39.6617429 L93.8412119,38.9113856 L94.1078063,40.0458544 L93.5479582,40.3853017 L93.3257962,40.9212712 L94.1611252,42.1182698 L95.3963457,42.6006423 L94.8187246,43.5296561 L95.1564107,44.1549539 L97.2713926,44.8427814 L98.5954779,45.5842059 L99.0398018,46.9866594 L102.265593,48.8804183 L103.314198,49.0769404 L105.171472,48.6660305 L107.037632,50.3364688 L107.695232,50.3989985 L108.690517,49.9255588 L109.197047,51.0242963 L110.556678,51.6227955 L111.694147,54.8207469 L113.15153,57.1879455 L114.20902,57.6792509 L114.911052,59.2514281 L115.204306,60.8236053 L114.413409,63.1461398 L115.008803,65.0488315 L113.115984,67.5142912 L112.751638,69.363386 L114.200134,72.2308228 L114.759982,72.5077403 L115.639743,72.3112182 L117.319288,73.1151724 L118.225709,73.088374 L119.229881,73.4814183 L122.162419,73.543948 L124.846135,74.0352534 L127.263257,73.8208656 L132.008637,74.5533573 L132.861739,74.8838718 L134.85231,76.7329666 L136.496308,77.018817 L137.518253,77.9746292 L139.944262,79.4306797 L142.2192,80.1899698 L143.98761,80.0738431 L143.872085,81.8604081 L145.213944,82.5839669 L147.248947,87.0950435 L147.408904,88.0597886 L150.350328,90.9182926 L150.963495,92.633395 L156.659728,92.1778209 L171.686763,93.9643859 L175.188035,93.0889691 L182.483834,94.0983783 L185.176437,94.2055722 L186.136177,94.4824898 L188.144521,96.7067632 L189.495265,97.2516655 L195.609163,98.4843954 L199.821353,100.512147 L204.859987,99.6099313 L204.859987,100.923057 L205.188786,101.28037 L207.55259,101.405429 L208.556762,101.771675 L210.067463,100.601475 L220.429097,96.2154578 L229.679921,94.9559295 L233.110101,95.2060486 L237.500022,95.0184593 L244.600318,92.3028805 L248.732531,87.6578115 L252.349327,86.3714847 L253.78005,85.0583594 L254.517628,84.8975686 L255.033044,84.415196 L254.970838,83.3075257 L254.268807,82.2534524 L252.242689,80.2435668 L251.513998,78.9215087 L252.918062,75.3573115 L254.58872,73.5707465 L257.74342,73.6332763 L258.818683,74.6784168 L259.733991,75.0803939 L265.794569,76.2148627 L269.171431,74.3032382 L271.499688,72.320151 L272.326131,70.8641006 L273.31253,70.6586456 L274.57441,70.9980929 L276.191749,70.8998319 L279.852978,70.2477356 L281.505863,68.8810134 L283.363137,67.8269401 L283.691937,67.1033812 L283.540866,66.451285 L284.402855,64.8880406 L285.415913,63.9858253 L285.762486,63.2979978 L287.450917,62.5833718 L290.685595,62.7888268 L291.0766,62.3868496 L291.414286,60.9129335 L293.440403,61.4667687 L295.617591,60.225106 L297.128292,59.8231289 L299.803122,60.019651 L300.673997,59.4658159 L302.629022,60.4394938 L303.855356,60.6806801 L306.423548,60.7521427 L307.632109,60.1625762 L308.005341,59.4568831 L307.996455,58.0990937 L307.258877,57.062886 L306.743462,55.6247011 L305.437149,54.6331576 L303.793151,52.7572643 L303.011141,52.3552872 L302.442406,51.2386841 L300.318538,50.3543344 L298.585674,48.4427099 L295.990823,47.9871358 L293.440403,48.3444488 L290.641163,51.1582886 L288.970505,49.8987603 L286.784431,49.3449252 L285.131546,49.6039771 L283.274272,49.4431863 L281.132631,50.8635054 L279.470859,49.4342534 L279.14206,48.9340152 L278.96433,47.6566213 L280.670534,46.5042868 L280.883809,43.8155065 L282.225668,42.0646728 L286.446745,33.3462356 L289.912471,34.9184128 L291.494265,35.0702709 L294.222413,35.9099564 L298.256875,32.9799898 L300.194127,31.9884462 L302.788979,31.541805 L303.757605,30.9075744 L304.246361,29.9964263 L304.379658,28.9066216 L304.050859,28.0580033 L303.428805,27.7364216 L303.917561,26.5304902 L304.992825,25.3066932 L305.472695,23.8238442 L306.983396,21.7335632 L307.42772,20.3221768 L308.431892,18.9733203 L309.107265,17.3743446 L313.150612,14.1049306 L313.683801,12.8811336 L313.674915,11.7555977 L313.132839,10.7997854 L313.337228,9.04001888 L313.052861,8.37898983 L311.862073,7.72689361 L309.542702,7.82515468 L309.116151,7.65543101 L309.027286,7.19985693 L313.25725,3.32301089 L315.025659,2.35826579 L317.807127,2.06348257 L323.832159,0.571700799 L325.129585,0.803954248 L326.693606,0.696760348 L329.421754,-2.84217094e-14 L332.398725,0.01786565 L335.873338,1.67043827 L336.388753,1.61684132 L337.899455,2.82277269 L339.116902,3.02822767 L340.201053,3.68925672 L340.823106,3.77858497 L341.29409,3.28727959 L342.093873,3.10862309 L345.141935,4.49321096 L345.746215,4.51107661 L346.217199,5.81526906 L347.221371,6.06538816 L348.296635,7.14625998 L348.092246,8.2985944 L349.256374,9.11148148 L350.171681,10.3710098 L351.353583,14.3639826 L352.59769,16.3113384 L352.677668,17.5887324 L353.290835,18.0979034 L353.495224,19.804073 L354.143937,21.7960929 L356.667697,25.2262977 L356.898746,26.3607665 L356.623265,27.2808475 L356.916519,28.4331819 L358.418333,29.5855163 L357.858485,31.5150065 L358.293923,33.1586463 L359.484711,34.4360403 L361.466396,35.3650541 L363.154826,35.472248 L366.211775,35.1238678 L366.824942,36.2226053 L368.157914,36.6156496 L368.584465,37.0622908 L370.406193,37.2409473 L371.330387,36.9461641 L371.579208,37.4374695 L372.565607,37.8930436 L374.876091,40.4299659 L376.013561,41.1981888 L378.377364,41.5108377 L378.617299,41.9396133 L378.226294,43.3420668 L379.888065,45.7181982 L379.328217,47.3171739 L379.434855,48.4427099 L380.27907,49.3806565 L380.989989,51.1761543 L381.41654,51.4888032 L383.727024,51.2297512 L385.282158,51.6138627 L386.801745,51.6227955 L391.333849,51.3190795 L392.195838,50.7920428 L393.075599,49.3717237 L394.230841,49.0412091 L395.919272,47.9960686 L398.149778,48.0407327 L400.629106,46.5400181 L403.508325,45.7181982 L405.107891,46.1112425 L405.712171,46.7722716 L404.98348,48.4963068 L406.147609,50.9528337 L404.921275,52.6590032 L403.348368,53.2039056 L402.397515,54.2401133 L402.513039,55.8390889 L401.67771,57.3487364 L401.348911,59.3496892 L400.353625,61.0647915 L400.522468,62.3064542 L400.29142,63.1997367 L399.287248,64.0394223 L398.914016,65.6026666 L397.972049,66.3351583 L397.536611,68.4611706 L395.794862,69.5241768 L395.297219,71.0338242 L395.261673,72.4898747 L394.417457,73.088374 L393.973134,72.9186503 L393.884269,72.2844197 L393.235556,71.5251296 L390.987277,70.6675784 L389.654305,70.6765112 L388.241355,71.3911372 L387.094999,70.7122425 L385.762027,71.7305846 L384.36685,73.5618137 L381.958615,74.1781786 L381.194378,74.7945435 L381.06108,75.5984978 L381.816431,77.1885406 L382.900581,81.3512371 L382.385166,84.3526663 L382.438485,86.0231045 L382.909468,86.5322756 L382.936127,86.969984 L382.420712,88.8012131 L381.798658,89.7927567 L381.736453,90.6324422 L378.057451,91.5703888 L377.47983,92.0884927 L377.45317,92.7137904 L376.928868,92.0616942 L376.919981,91.0076209 L376.644501,90.6413751 L375.640329,89.9892788 L373.987444,89.8642193 L373.134342,91.7579782 L372.725564,94.2055722 L371.845802,94.6700791 L371.117111,94.2859676 L370.175144,94.5182211 L369.419794,95.4472349 L369.242064,96.2243907 L367.615839,97.4928518 L363.62581,97.5911129 L361.58192,98.1270824 L361.519714,99.1454244 L363.181486,101.405429 L362.452795,102.700689 L361.750763,102.227249 L359.53803,102.289779 L356.276692,101.575153 L355.636866,100.440684 L354.748218,99.6635283 L354.108391,99.627797 L352.953149,100.11017 L351.975637,100.905191 L351.33581,102.986539 L348.0567,106.577535 L346.261631,106.943781 L344.27106,108.524891 L341.951689,109.444972 L341.374068,110.079202 L340.689809,110.159598 L337.312947,113.000236 L336.530937,114.402689 L335.580084,114.983323 L333.482875,115.117315 L332.851935,114.715338 L332.389838,114.786801 L331.945514,115.456763 L330.479245,115.635419 L329.670576,116.20712 L328.515334,116.296448 L327.093497,116.912813 L323.734408,118.752975 L321.397264,121.200569 L320.633027,121.620412 L319.246737,121.691875 L318.953483,122.075986 L319.051234,122.71915 L317.105095,123.094328 L316.287539,123.567768 L316.172015,123.308716 L316.10981,122.799545 L319.673288,121.42389 L319.86879,120.959383 L319.593309,120.25369 L320.67746,119.199617 L320.624141,118.592184 L320.206476,118.440326 L317.318371,118.618983 L317.265052,117.78823 L318.811299,116.90388 L318.553591,116.001665 L318.722434,115.57289 L320.641914,114.652809 L323.210106,111.472723 L323.841046,109.873747 L322.792442,108.337301 L321.050692,107.202833 L320.917395,106.30955 L320.473071,106.014767 L319.708834,107.024176 L315.940967,106.65793 L313.221704,109.168054 L311.311111,111.946163 L305.490468,114.509883 L304.050859,115.760479 L303.108892,117.368387 L302.851184,118.574319 L301.376029,120.182227 L299.056658,120.226891 L297.110519,121.004047 L296.266303,120.155429 L295.217699,119.815981 L294.05357,120.092899 L293.280447,120.72713 L291.725313,124.23773 L291.760859,125.005953 L292.418458,126.569197 L293.29822,127.614338 L295.066629,128.659478 L298.585674,129.347306 L300.247446,129.106119 L301.020569,129.642089 L301.873671,131.928892 L301.287164,132.42913 L301.029456,134.89459 L302.309109,136.234514 L304.664026,136.850879 L306.805667,136.618625 L307.845385,135.770007 L307.925363,134.95712 L310.680171,132.911503 L310.706831,132.420197 L313.346115,131.401855 L315.15007,132.161146 L316.243107,133.090159 L317.469441,133.322413 L319.122326,134.215695 L321.406151,134.367553 L322.152615,133.742256 L322.676917,134.269292 L323.796614,134.662337 L325.387293,134.581941 L325.129585,135.028582 L325.200677,135.877201 L324.365348,136.690088 L324.356462,137.136729 L324.783013,137.636967 L323.814387,138.369459 L322.792442,137.404714 L321.183989,137.395781 L315.230048,140.093494 L313.73712,139.905905 L313.337228,140.307882 L314.003714,141.460216 L313.301683,141.335157 L312.750721,141.826462 L312.421921,143.782751 L310.991198,144.282989 L310.866787,143.237849 L310.520215,142.996662 L309.338313,143.282513 L308.680714,143.997139 L308.698487,144.408049 L309.560475,145.32813 L308.556303,145.846233 L307.952023,146.837777 L307.232218,147.54347 L306.210273,148.01691 L304.939506,149.740945 L304.352999,150.133989 L303.739832,151.643637 L302.788979,152.536919 L302.451292,153.769649 L302.691227,154.734394 L303.028914,154.984513 L303.944221,154.975581 L305.41049,156.199378 L307.969796,157.226652 L309.835956,158.423651 L311.417749,163.184847 L313.808212,167.758453 L313.817098,170.572293 L314.812384,171.32265 L317.051776,172.323127 L317.327257,172.600044 L317.425009,173.904237 L318.038176,174.583131 L319.753266,175.521078 L320.357546,176.637681 L320.393092,177.07539 L320.117612,177.084322 L317.37169,175.905189 L315.007886,175.851593 L313.763779,174.654594 L311.888733,174.082893 L308.396347,175.396018 L308.529644,176.039182 L309.569362,176.262502 L311.728776,175.440683 L312.901791,175.65507 L313.452753,176.869935 L315.247821,177.620292 L317.185074,179.335394 L319.184531,180.52346 L319.948768,181.586466 L320.446411,183.024651 L317.647171,183.837538 L316.882933,184.516433 L314.84793,185.534775 L313.781552,186.97296 L311.186701,186.794303 L309.764864,187.60719 L309.356086,188.348615 L310.653512,188.482607 L311.54216,188.161025 L312.62631,189.322293 L314.572449,189.072173 L316.189788,188.089563 L317.140641,188.205689 L319.273396,190.340635 L321.210648,191.064193 L318.162586,193.449258 L318.064835,193.8691 L318.446954,194.074555 L319.673288,193.878033 L320.9796,193.083012 L320.82853,195.825389 L319.939882,195.057166 L318.571364,195.16436 L317.949311,195.655665 L317.682716,196.102307 L317.922651,196.638276 L319.140099,197.469029 L318.27811,197.603021 L318.402521,198.031797 L318.997915,198.460573 L317.869332,199.675437 L318.651343,201.855046 L317.060663,202.507142 L316.794069,201.855046 L315.887648,201.792516 L315.345573,202.257023 L314.483584,203.972126 L313.319456,204.079319 L313.017315,204.579558 L313.550504,205.151258 L312.048689,207.259405 L312.084235,208.599329 L310.689058,210.332297 L309.924821,210.841468 L308.956195,212.422578 L308.600736,213.91436 L307.925363,214.253807 L307.525472,213.530248 L307.543245,212.887085 L307.045602,212.502973 L306.352456,213.271196 L305.810381,212.96748 L305.25942,213.280129 L305.605992,214.530725 L306.627937,215.173888 L307.143353,216.299424 L304.672912,218.148519 L302.709,217.675079 L302.335768,217.83587 L302.362428,218.24678 L303.331054,219.408047 L304.512955,219.577771 L305.56156,219.211525 L304.939506,221.775246 L305.428263,222.909715 L304.45075,222.400543 L302.637908,222.588133 L302.344655,223.204498 L303.108892,224.196041 L301.900331,224.088847 L301.269391,224.338966 L300.851726,224.928533 L300.878386,226.232725 L299.225501,226.866956 L298.95002,227.26 L299.438776,227.894231 L299.172182,228.474864 L297.083859,228.707118 L295.653136,228.349805 L294.915559,228.930439 L294.782262,229.421744 L293.982479,229.43961 L293.671452,229.841587 L293.786976,230.315026 L294.2313,230.708071 L295.004424,230.797399 L295.084402,231.270839 L293.822522,232.709024 L293.102717,232.807285 L292.400685,233.834559 L291.22767,234.084679 L291.005508,235.317408 L290.410114,234.81717 L289.059369,235.728318 L287.895241,235.299543 L287.477576,235.567527 L287.175436,236.80919 L285.602529,237.648876 L286.02908,238.220577 L285.113773,238.685083 L284.713882,240.257261 L283.176521,240.123268 L282.687764,240.677103 L280.750512,241.257737 L279.239811,240.936155 L278.715509,241.14161 L278.244525,241.865169 L276.2895,241.195207 L274.449999,242.124221 L274.058994,242.579795 L273.712421,242.544064 L273.525805,241.972363 L272.894865,241.623983 L272.148401,242.115288 L271.739623,243.106832 L270.770997,242.749519 L270.166716,243.0711 L269.269182,242.946041 L268.149486,243.214026 L266.256666,241.088013 L266.052277,240.060738 L266.230006,239.506903 L265.821228,238.997732 L265.048105,239.221053 L264.550462,239.551567 L264.443824,240.364455 L263.892863,240.516313 L263.644041,240.954021 L265.11031,243.205093 L265.323586,244.884464 L264.6571,245.616956 L262.995328,246.35838 L262.702075,245.670553 L262.106681,245.581224 L261.484627,246.394111 L261.253579,247.644707 L260.338271,247.349924 L258.960867,248.41293 L258.3477,248.010953 L258.19663,247.287394 L257.485712,247.081939 L257.174685,247.537513 L257.343528,248.555855 L257.094707,248.725579 L254.775336,247.984154 L254.091077,248.939966 L253.371272,249.011429 L252.349327,250.038704 L251.034128,250.199495 L250.492053,250.530009 L248.58146,250.360286 L248.146023,251.003449 L246.697527,251.333964 L245.444533,252.4595 L245.169053,252.450567 L244.706956,251.619814 L244.200427,251.887799 L243.996038,252.906141 L242.903001,253.745826 L242.503109,254.790967 L242.974092,255.648518 L244.01381,255.773578 L243.649465,256.175555 L243.685011,256.881248 L244.893572,257.854926 L244.546999,258.551686 L243.996038,258.882201 L242.645293,259.078723 L241.605575,258.891134 L242.049899,258.355164 L241.943261,258.042515 L241.143478,257.417217 L240.805792,256.863382 L240.841338,256.148756 L239.95269,254.844564 L240.085987,253.451043 L240.663608,252.218313 L241.650007,251.691277 L241.712213,250.958785 L241.36564,250.565741 L240.850224,250.547875 L240.485879,250.128032 L239.908257,250.208428 L239.32175,249.288347 L238.655264,249.073959 L238.282032,249.475936 L238.397556,250.324554 L236.202596,250.923054 L236.353666,250.27989 L236.007093,249.833249 L235.358381,249.538466 L233.758814,249.502734 L232.88794,248.654116 L232.905712,248.00202 L232.470275,247.617908 L231.714924,247.59111 L231.350579,247.948423 L231.5994,249.565264 L230.630774,249.065026 L229.990948,249.99404 L228.426927,250.333487 L226.987318,249.341944 L225.13893,249.708189 L224.303601,249.565264 L223.948142,249.073959 L222.49076,248.430795 L221.895366,247.52858 L219.931454,246.930081 L219.887022,245.447232 L219.131671,244.455688 L219.33606,243.535607 L220.091411,243.062168 L220.695691,241.972363 L220.589053,241.481058 L218.953941,240.543111 L217.11444,240.864693 L216.572365,240.212596 L215.657058,240.03394 L214.279654,240.400186 L212.475699,239.417575 L211.738121,238.309905 L210.547333,237.461286 L207.392633,238.997732 L207.037174,239.462239 L206.859444,240.659238 L206.335142,241.114812 L205.286538,241.248804 L204.273479,241.918766 L203.251534,241.195207 L202.069632,241.641848 L201.438692,243.088966 L199.572532,241.454259 L198.781635,241.829438 L198.479495,242.579795 L197.892988,241.731177 L197.333139,241.481058 L195.138179,243.714264 L194.285077,242.803116 L191.787977,241.606117 L191.14815,241.856236 L189.450833,244.098375 L188.739915,243.785726 L187.629105,244.044778 L187.069257,243.437346 L186.42943,243.517742 L185.078686,245.545493 L185.611874,247.430319 L186.491636,248.573721 L186.384998,252.021791 L186.820435,252.611358 L186.633819,252.781081 L185.52301,252.236179 L183.790146,252.557761 L183.15032,249.118623 L182.546039,248.600519 L180.679879,249.333011 L179.178064,250.601472 L177.667363,250.387084 L176.441029,250.565741 L176.254413,249.547399 L175.205808,248.797041 L175.2769,247.358856 L175.010306,246.840753 L172.619843,246.269052 L170.122743,246.054664 L171.215779,243.767861 L171.500147,241.61505 L172.344362,240.426984 L171.997789,239.667694 L171.526806,239.381844 L168.123285,238.613621 L168.176604,237.389824 L167.661188,236.487608 L167.838918,235.665789 L166.834746,233.861358 L167.88335,232.280248 L167.501231,231.914002 L166.008303,232.226651 L165.306271,231.958666 L163.369019,231.994398 L161.938296,232.351711 L159.441196,233.530843 L160.18766,232.441039 L160.383162,231.583488 L160.018817,230.207833 L159.219034,229.555736 L159.210147,228.724984 L159.503401,227.894231 L160.560892,227.126008 L160.436481,225.884345 L160.978556,224.651615 L161.609496,224.678414 L162.258209,224.249638 L162.960241,223.240229 L163.235722,222.195089 L164.355418,222.177223 L165.324044,220.703307 L166.417081,220.372792 L166.701448,219.881487 L166.106054,218.371839 L166.870291,217.692945 L167.25241,213.923293 L166.665902,207.554188 L165.066336,206.64304 L164.559807,206.794898 L164.204348,207.420196 L162.924695,203.266432 L161.493972,201.685322 L160.64087,201.587061 L159.832201,200.559786 L158.614753,200.640182 L157.415078,202.480344 L155.984355,201.533464 L155.184572,201.721054 L153.976011,201.533464 L152.76745,200.85457 L151.043473,201.453069 L151.221203,200.836704 L152.785223,199.255594 L152.874088,198.853617 L151.83437,196.656142 L150.892403,196.736537 L149.959323,197.370768 L149.888231,196.861597 L151.167884,196.039777 L151.390046,195.593136 L151.132338,195.083965 L150.252577,195.048233 L149.097335,193.70831 L147.764363,194.110287 L145.276149,195.468076 L144.511912,196.656142 L140.779591,195.691397 L140.113105,194.851711 L139.322208,194.708786 L137.082816,195.968314 L135.927574,197.129582 L135.421044,197.227843 L134.514624,198.424841 L133.617089,198.934012 L130.151363,199.720101 L129.209396,201.42627 L126.134674,203.641611 L126.214653,204.668886 L124.748384,205.463907 L123.548709,205.383512 L121.798073,206.142802 L119.949685,205.928414 L119.896367,204.829677 L117.36372,203.659477 L116.715007,203.730939 L115.604198,204.400901 L113.595853,203.686275 L111.356461,203.632678 L111.471985,202.819791 L111.152072,202.43568 L109.463641,201.997971 L107.979599,202.060501 L105.038175,203.838133 L102.87876,206.392921 L102.461096,207.277271 L101.519129,208.116956 L101.199216,208.858381 L100.781552,208.009762 L101.403605,205.320982 L100.994827,204.186513 L99.7062877,203.525484 L96.2050152,204.570625 L95.7784642,205.026199 L94.4810384,204.981535 L92.9170182,205.490706 L89.8600696,205.338848 L89.069173,204.704617 L87.3451962,204.043588 L86.9541912,203.561216 L86.2521594,203.409358 L85.7011977,203.552283 L85.2479873,204.570625 L84.8836417,204.659953 L83.8350373,204.097185 L83.2307567,203.391492 L82.8575246,203.382559 L82.28879,203.900663 L82.102174,204.77608 L81.3290503,203.302164 L80.2004676,202.221292 L76.5214655,201.926509 L76.8858111,200.354331 L76.6369897,199.889825 L75.8283202,199.755832 L74.2287541,200.113145 L70.6208439,197.656618 L69.6344448,195.334084 L68.2570406,194.887443 L66.1864911,195.557404 L63.4139099,192.511311 L61.3700199,191.966409 L58.9617842,190.108381 L57.175602,189.197233 L55.8604032,187.214146 L53.1589138,186.767505 L51.5326883,187.142683 L50.2708083,189.036442 L49.7376196,189.331225 L48.9111771,187.910906 L46.4051902,186.356595 L43.8103385,185.472245 L43.836998,184.337776 L43.4015605,183.882202 L42.8328259,183.855404 L41.0110978,182.551211 L39.3759858,182.622674 L38.3451543,181.872317 L36.3812426,179.317529 L35.6880973,179.138872 L35.1371356,179.773103 L34.1951689,180.076819 L34.1063041,179.058477 L34.5150821,178.24559 L34.4795362,177.816814 L33.8308233,177.01286 L34.0974176,175.413884 L32.4711921,173.421864 L31.875798,171.394113 L33.4131588,171.179725 L33.7597315,171.992612 L35.0216114,172.90376 L36.0968753,172.662574 L37.3409823,171.474508 L37.225458,168.142565 L36.5767451,167.383274 L36.7544747,166.356 L34.550628,163.89054 L34.0618717,160.147686 L35.590346,158.789897 L35.6703243,157.941278 L35.2793193,157.315981 L33.546456,156.092184 L31.0493555,155.16317 L29.2898328,150.732489 L29.5208813,149.267505 L29.2542869,148.749402 L28.1168177,148.936991 L27.4325588,148.615409 L25.2109392,148.758334 L22.8915684,148.186634 L19.9412575,146.882441 L19.6302308,146.650188 L19.5680254,145.944494 L19.1414745,145.631846 L16.8398766,146.203546 L16.2889149,145.015481 L15.2936293,144.577772 L15.6935209,143.836348 L15.7201803,142.10338 L15.41804,140.959978 L14.6982353,139.861241 L13.4008094,139.084085 L11.9967458,139.173413 L11.312487,137.779892 L9.31302937,137.199259 L8.21110604,137.431512 L6.96699907,136.841946 L5.92728109,136.88661 L5.28745465,136.359573 L5.29634113,136.457834 Z M377.906381,93.0979019 L378.26184,93.1604317 L378.448456,93.3658867 L378.128543,93.2497599 L377.906381,93.0979019 Z M323.441154,189.974389 L322.072637,189.608143 L321.921567,189.366957 L322.383664,189.37589 L323.441154,189.974389 L323.441154,189.974389 Z M317.096209,177.155785 L317.887105,177.396971 L318.198132,177.906142 L319.397807,178.585037 L317.540533,177.673889 L317.096209,177.155785 L317.096209,177.155785 Z M316.367518,203.722006 L316.385291,203.695208 L316.385291,203.713074 L316.367518,203.722006 Z M306.779007,222.757856 L306.779007,222.677461 L306.850099,222.489872 L306.867872,222.686394 L306.779007,222.748924 L306.779007,222.757856 Z M306.894532,222.239753 L306.876759,222.025365 L306.814553,221.927104 L306.983396,222.052163 L306.894532,222.23082 L306.894532,222.239753 Z M236.957947,262.633987 L237.357838,262.35707 L238.69081,262.339204 L239.570571,261.794302 L241.21457,261.937227 L242.485336,261.722839 L243.134049,261.302996 L243.960492,261.392325 L244.609205,261.830033 L244.831366,261.428056 L245.63115,261.812167 L246.137679,261.490586 L246.253203,260.77596 L247.817223,261.901496 L248.226001,263.554068 L247.035213,264.197232 L245.826652,266.046326 L245.320123,266.984273 L244.555886,269.807046 L241.987693,271.388156 L241.898829,271.933058 L240.565857,272.084916 L239.62389,273.121124 L238.726356,273.29978 L235.527224,272.299304 L233.545539,271.254163 L233.145647,269.119218 L233.287831,266.323244 L237.286746,263.232486 L237.375611,262.830509 L236.957947,262.616122 L236.957947,262.633987 Z"/>
    <g transform="translate(168.473 121.264)">
      <use fill="black" filter="url(#a)" xlink:href="#b"/>
      <use fill="#FFFFFF" xlink:href="#b"/>
      <text fill="#424242" font-family="SourceSansPro-Regular, Source Sans Pro" font-size="12">
        <tspan x="18.383" y="17.554">CHINA</tspan>
      </text>
    </g>
  </g>
</svg>
