<svg xmlns="http://www.w3.org/2000/svg" viewBox="0 0 255 80" xmlns:xlink="http://www.w3.org/1999/xlink"><defs><filter id="a" width="112.8%" height="150%" x="-6.4%" y="-25%" filterUnits="objectBoundingBox"><feOffset in="SourceAlpha" result="shadowOffsetOuter1"/><feGaussianBlur stdDeviation="5" in="shadowOffsetOuter1" result="shadowBlurOuter1"/><feColorMatrix values="0 0 0 0 0 0 0 0 0 0 0 0 0 0 0 0 0 0 0.3 0" in="shadowBlurOuter1" result="shadowMatrixOuter1"/><feMerge><feMergeNode in="shadowMatrixOuter1"/><feMergeNode in="SourceGraphic"/></feMerge></filter><linearGradient id="b" x1="19.215%" x2="69.302%" y1="-35.157%" y2="93.537%"><stop stop-color="#19A3B4" offset="0%"/><stop stop-color="#5BC3AF" offset="34.817%"/><stop stop-color="#C9F7A6" offset="92.234%"/><stop stop-color="#D7FEA5" offset="100%"/></linearGradient><path id="c" d="M15.8974 8.17L2.0466.2442C1.654.0207 1.2916-.0313.9983.064l11.345 11.8052 3.554-3.6993"/><linearGradient id="d" x1="-14.698%" x2="74.844%" y1="-114.322%" y2="114.156%"><stop stop-color="#FC227C" offset="0%"/><stop stop-color="#FEEB7B" offset="100%"/></linearGradient><linearGradient id="e" x1="28.151%" x2="48.188%" y1="-14.814%" y2="82.894%"><stop stop-color="#0E4DA0" offset="0%"/><stop stop-color="#6BFED4" offset="100%"/></linearGradient><path id="f" d="M.9976.064C.5763.201.3036.645.3036 1.3163l.0027 21.134c0 .664.2642 1.1012.673 1.247l11.364-11.826L.9976.0638"/><linearGradient id="g" x1="132.245%" x2="5.959%" y1="16.466%" y2="126.31%"><stop stop-color="#FC472E" offset="0%"/><stop stop-color="#FC472E" offset=".332%"/><stop stop-color="#893CD8" offset="100%"/></linearGradient><path id="h" d="M.9794 23.6975c.2954.104.6647.0554 1.0672-.1743l13.867-7.9364-3.5703-3.7155L.9793 23.6975"/></defs><g fill="none" fill-rule="evenodd" filter="url(#a)" transform="translate(10 10)"><rect width="235" height="60" fill="#212121" rx="30"/><text fill="#FFF" font-family="SourceSansPro-Regular, Source Sans Pro" font-size="10"><tspan x="74" y="17">Android App on</tspan></text><text fill="#FFF" font-family="SourceSansPro-Regular, Source Sans Pro" font-size="20"><tspan x="74" y="44">Google Play</tspan></text><g transform="translate(6 6)"><circle cx="24" cy="24" r="24" stroke="#FFF" opacity=".701"/><g transform="translate(13 12)"><use fill="url(#b)" xlink:href="#c"/><path fill="url(#d)" d="M15.9155 15.5868l4.7284-2.7056c.9586-.5505.9586-1.4463 0-1.9956L15.898 8.17l-3.5547 3.6992 3.5722 3.7176"/><use fill="url(#e)" xlink:href="#f"/><use fill="url(#g)" xlink:href="#h"/></g></g></g></svg>