<svg xmlns="http://www.w3.org/2000/svg" viewBox="0 0 255 80"><defs><filter id="a" width="112.8%" height="150%" x="-6.4%" y="-25%" filterUnits="objectBoundingBox"><feOffset in="SourceAlpha" result="shadowOffsetOuter1"/><feGaussianBlur stdDeviation="5" in="shadowOffsetOuter1" result="shadowBlurOuter1"/><feColorMatrix values="0 0 0 0 0 0 0 0 0 0 0 0 0 0 0 0 0 0 0.3 0" in="shadowBlurOuter1" result="shadowMatrixOuter1"/><feMerge><feMergeNode in="shadowMatrixOuter1"/><feMergeNode in="SourceGraphic"/></feMerge></filter></defs><g fill="none" fill-rule="evenodd" filter="url(#a)" transform="translate(10 10)"><rect width="235" height="60" fill="#212121" rx="30"/><text fill="#FFF" font-family="SourceSansPro-Regular, Source Sans Pro" font-size="10"><tspan x="74" y="17">Available on the</tspan></text><text fill="#FFF" font-family="SourceSansPro-Regular, Source Sans Pro" font-size="20"><tspan x="74" y="44">Apple Store</tspan></text><path fill="#FFF" d="M40 35.524c-.3733 1.202-.962 2.404-1.766 3.6058-1.2347 1.8846-2.4647 2.827-3.69 2.827-.469 0-1.139-.154-2.01-.4616-.823-.3077-1.5457-.4615-2.168-.4615-.5838 0-1.2633.1586-2.0386.476-.7754.3268-1.407.4903-1.8952.4903-1.455 0-2.8955-1.2452-4.3216-3.7356C20.7036 35.7548 20 33.3364 20 31.0096c0-2.1923.5408-3.9904 1.6224-5.3942 1.072-1.3846 2.4312-2.077 4.0775-2.077.689 0 1.536.1443 2.541.4328.9952.2884 1.656.4326 1.981.4326.431 0 1.115-.1634 2.0532-.4903.9763-.327 1.8042-.4904 2.4838-.4904 1.139 0 2.1585.313 3.0583.938.4977.346.9954.827 1.493 1.4424-.756.644-1.3016 1.2115-1.6366 1.702-.622.904-.9333 1.899-.9333 2.9855 0 1.1922.3303 2.2643.9907 3.2162.6607.952 1.4168 1.5578 2.2687 1.8174zm-5.3984-16.9182c0 .5865-.1388 1.2404-.4164 1.9615-.287.7212-.7322 1.3846-1.3352 1.9904-.517.5192-1.0338.8654-1.5506 1.0385-.3542.1057-.852.1875-1.4932.245.0287-1.4325.402-2.668 1.12-3.7066.7082-1.0288 1.9046-1.7404 3.5892-2.1346.0096.0288.0216.0817.036.1587.0143.077.0263.1298.0358.1586 0 .0385.0024.0865.0072.1442.0048.0577.0072.1058.0072.1443z"/><path stroke="#FFF" d="M30 54c13.2548 0 24-10.7452 24-24S43.2548 6 30 6 6 16.7452 6 30s10.7452 24 24 24z" opacity=".703"/></g></svg>